# xmcd
#
# Track frame offsets:
#	200
#	10275
#	20002
#	34045
#	41995
#	65500
#	78417
#	87352
#	100977
#	114370
#	129515
#	141412
#	159777
#
# Disc length: 2314 seconds
#
# Revision: 2
# Processed by: cddbd v1.5.2PL0 Copyright (c) Steve Scherf et al.
# Submitted via: dBpowerAMP V4.0
#
DISCID=a809080d
DTITLE=The Brother Boys - Plow
DYEAR=1992
DGENRE=Bluegrass
TTITLE0=Gonna Row My Boat
TTITLE1=I Got Over The Blues
TTITLE2=Kiss The Dream Girl
TTITLE3=Alone With You
TTITLE4=Twist You Up
TTITLE5=Then and Only Then
TTITLE6=Hoping That You're Hoping
TTITLE7=I See Love
TTITLE8=Blue Guitar
TTITLE9=Little Box
TTITLE10=Darkest Day
TTITLE11=Satellite Shack
TTITLE12=What Will Be In The Fields Tomorrow
EXTD=
EXTT0=
EXTT1=
EXTT2=
EXTT3=
EXTT4=
EXTT5=
EXTT6=
EXTT7=
EXTT8=
EXTT9=
EXTT10=
EXTT11=
EXTT12=
PLAYORDER=
